# xmcd
#
# Track frame offsets: 
#        150
#        13735
#        24981
#        37453
#        48562
#        62488
#        79295
#        89633
#        103768
#        119124
#        133998
#        144561
#        156709
#        170269
#        194109
#        207580
#        220240
#        230539
#        242419
#        266180
#
# Disc length: 4022 seconds
#
# Revision: 0
# Processed by: cddbd v1.5.2PL0 Copyright (c) Steve Scherf et al.
# Submitted via: ExactAudioCopy v0.99pb4
#
DISCID=430fb414
DTITLE=Dinah Washington - 100 Hits Legends [CD1)
DYEAR=2011
DGENRE=Blues
TTITLE0=Mad About The Boy
TTITLE1=What A Diff'rencea Day Makes
TTITLE2=Baby (You've Got What It Takes)
TTITLE3=This Bitter Earth
TTITLE4=I've Got A Crush On You
TTITLE5=All Of Me
TTITLE6=Sometimes I'm Happy
TTITLE7=Our Love Is Here To Stay
TTITLE8=Come On Home
TTITLE9=A Sunday Kind Of Love
TTITLE10=My Ideal
TTITLE11=Dream
TTITLE12=There'll Be Some Changes Made
TTITLE13=Blue Gardenia
TTITLE14=Black And Blue
TTITLE15=Teach Me Tonight
TTITLE16=Pennies From Heaven
TTITLE17=Give Me Back My Tears
TTITLE18=Darn That Dream
TTITLE19=Blue Skies
EXTD=
EXTT0=
EXTT1=
EXTT2=
EXTT3=
EXTT4=
EXTT5=
EXTT6=
EXTT7=
EXTT8=
EXTT9=
EXTT10=
EXTT11=
EXTT12=
EXTT13=
EXTT14=
EXTT15=
EXTT16=
EXTT17=
EXTT18=
EXTT19=
PLAYORDER=
